<?xml version="1.0" encoding="UTF-8" standalone="no"?>
<!-- Created with Inkscape (http://www.inkscape.org/) -->

<svg
   xmlns:dc="http://purl.org/dc/elements/1.1/"
   xmlns:cc="http://creativecommons.org/ns#"
   xmlns:rdf="http://www.w3.org/1999/02/22-rdf-syntax-ns#"
   xmlns:svg="http://www.w3.org/2000/svg"
   xmlns="http://www.w3.org/2000/svg"
   xmlns:sodipodi="http://sodipodi.sourceforge.net/DTD/sodipodi-0.dtd"
   xmlns:inkscape="http://www.inkscape.org/namespaces/inkscape"
   width="210mm"
   height="297mm"
   viewBox="0 0 210 297"
   version="1.1"
   id="svg8"
   inkscape:version="0.92.4 (unknown)"
   sodipodi:docname="paya.svg">
  <defs
     id="defs2" />
  <sodipodi:namedview
     id="base"
     pagecolor="#ffffff"
     bordercolor="#666666"
     borderopacity="1.0"
     inkscape:pageopacity="0.0"
     inkscape:pageshadow="2"
     inkscape:zoom="1.979899"
     inkscape:cx="371.5661"
     inkscape:cy="896.12867"
     inkscape:document-units="mm"
     inkscape:current-layer="layer1"
     showgrid="false"
     inkscape:window-width="1920"
     inkscape:window-height="1016"
     inkscape:window-x="0"
     inkscape:window-y="27"
     inkscape:window-maximized="1" />
  <metadata
     id="metadata5">
    <rdf:RDF>
      <cc:Work
         rdf:about="">
        <dc:format>image/svg+xml</dc:format>
        <dc:type
           rdf:resource="http://purl.org/dc/dcmitype/StillImage" />
        <dc:title></dc:title>
      </cc:Work>
    </rdf:RDF>
  </metadata>
  <g
     inkscape:label="Layer 1"
     inkscape:groupmode="layer"
     id="layer1">
    <rect
       id="rect3713"
       width="35.151787"
       height="35.907738"
       x="21.166666"
       y="29.392857"
       style="stroke-width:0.26458332;fill:#daa13b;fill-opacity:1" />
    <rect
       id="rect3713-3"
       width="35.151787"
       height="35.907738"
       x="56.318451"
       y="29.392857"
       style="fill:#7ba100;fill-opacity:1;stroke-width:0.26458332" />
    <rect
       id="rect3713-6"
       width="35.151787"
       height="35.907738"
       x="91.470238"
       y="29.392857"
       style="fill:#00bf92;fill-opacity:1;stroke-width:0.26458332" />
    <rect
       id="rect3713-7-5"
       width="35.151787"
       height="35.907738"
       x="21.166664"
       y="29.392857"
       style="fill:#f5c400;fill-opacity:1;stroke-width:0.26458332" />
    <path
       style="fill:#000000;stroke-width:0.35277778"
       d="m 152.89353,69.922618 c -0.43603,-0.43603 -0.55437,-1.37364 -0.55437,-4.39236 0,-5.339358 0.44238,-7.137318 2.1848,-8.879744 1.19722,-1.197222 2.74278,-3.81242 2.2531,-3.81242 -0.0867,0 -0.9223,0.474733 -1.85682,1.054961 -2.44128,1.515745 -5.19369,1.952134 -7.91514,1.254933 -1.1812,-0.302613 -2.64707,-0.899517 -3.25748,-1.326456 -1.82259,-1.274762 -6.21194,-5.362561 -6.21878,-5.791546 -0.004,-0.265458 1.43561,-0.455845 4.31518,-0.570593 5.56609,-0.221798 8.07546,-1.004337 11.78765,-3.675933 1.52044,-1.094233 3.39943,-2.26783 4.17555,-2.607994 0.84887,-0.372058 4.06989,-0.924391 8.08421,-1.386265 6.6731,-0.767784 6.6731,-0.767784 9.78374,-3.296252 3.11062,-2.528467 3.11062,-2.528467 0.20606,-2.723434 -1.59751,-0.107231 -3.17576,-0.320113 -3.50722,-0.47307 -0.75517,-0.348487 -2.39596,-3.10548 -2.39596,-4.025892 0,-0.886954 0.22424,-1.055127 4.30758,-3.230478 4.44981,-2.370583 4.86464,-2.999475 4.86464,-7.374873 0,-2.288406 0.12386,-3.221555 0.42762,-3.221555 0.23519,0 1.10831,0.668054 1.94028,1.484563 1.51266,1.484562 1.51266,1.484562 1.51266,-0.529167 0,-1.206377 0.1527,-2.013729 0.38088,-2.013729 0.56749,0 14.4594,13.51041 14.32167,13.928359 -0.0651,0.197528 -0.62853,0.438517 -1.25207,0.535531 -1.13371,0.176389 -1.13371,0.176389 0.98151,2.265518 1.16337,1.149021 2.03398,2.220584 1.93468,2.38125 -0.0993,0.160666 -0.68252,0.292121 -1.29605,0.292121 -1.11552,0 -1.11552,0 1.12193,2.257519 1.25115,1.262363 2.13166,2.428695 1.99746,2.645834 -0.13199,0.213572 -0.82941,0.388314 -1.54983,0.388314 -1.30983,0 -1.30983,0 -1.75892,2.367345 -0.24699,1.30204 -0.99951,3.403932 -1.67226,4.67087 -0.87161,1.641452 -2.03775,5.346342 -4.05731,12.890294 -1.81205,6.768839 -3.04344,10.745799 -3.41451,11.027739 -0.70469,0.53543 -2.36081,0.57357 -3.29093,0.0758 -0.64069,-0.34288 -0.68237,-0.80846 -0.68237,-7.62246 0,-6.472756 -0.0603,-7.234132 -0.55802,-7.043148 -0.30691,0.117774 -0.70378,0.214132 -0.88194,0.214132 -0.1859,0 -0.32392,3.001134 -0.32392,7.043146 0,6.6023 -0.0427,7.066 -0.68237,7.40833 -0.78524,0.42025 -2.82946,0.47701 -3.42833,0.0952 -0.22359,-0.14255 -0.99047,-2.48168 -1.70419,-5.19807 -2.47675,-9.426478 -2.13033,-8.643844 -3.82334,-8.637717 -1.27903,0.0046 -1.81189,0.285136 -4.0236,2.118113 -1.40213,1.162026 -2.77167,2.54869 -3.04343,3.081464 -0.27175,0.53279 -0.84649,2.5562 -1.27719,4.49647 -0.4469,2.01326 -1.02456,3.7171 -1.34553,3.96875 -0.71601,0.56139 -2.97699,0.57268 -3.53202,0.0176 -0.2784,-0.27839 -0.42867,-1.81836 -0.43893,-4.49791 -0.0156,-4.074585 -0.0156,-4.074585 -0.68225,-2.81352 -0.36667,0.69359 -1.00785,2.59739 -1.42486,4.23065 -0.41702,1.63327 -0.94344,3.08742 -1.16983,3.23145 -0.7338,0.46682 -2.99149,0.28824 -3.56143,-0.2817 z m 3.30645,-3.53625 c 0.67657,-3.40382 2.11568,-5.982468 4.8006,-8.60192 2.56418,-2.501646 3.42575,-3.913537 4.19845,-6.880109 0.61244,-2.351317 0.78036,-2.652357 1.47946,-2.652357 0.43805,0 0.49302,0.281612 0.29265,1.499306 -0.13568,0.824618 -0.46483,2.134306 -0.73143,2.910417 -0.2666,0.776111 -0.48704,1.530174 -0.48986,1.675694 -0.003,0.145521 1.96257,0.264584 4.36755,0.264584 4.37268,0 4.37268,0 3.54538,-3.251398 -0.45502,-1.788269 -0.7627,-3.316005 -0.68373,-3.394971 0.28927,-0.289274 1.25512,0.297931 1.48975,0.905729 0.13278,0.343947 1.36013,4.911612 2.72747,10.150362 2.27547,8.718153 2.55318,9.534553 3.27836,9.637733 0.79231,0.11273 0.79231,0.11273 0.79231,-11.906253 0,-10.320049 0.073,-12.018981 0.51675,-12.018981 0.94481,0 1.24714,1.325677 1.24714,5.468638 0,4.673879 -0.3863,4.344614 3.43621,2.928963 5.37863,-1.991953 9.59429,-7.527972 10.20867,-13.406078 0.1679,-1.606433 0.37652,-2.167131 0.87491,-2.351498 0.56207,-0.20792 0.35533,-0.538085 -1.46462,-2.339044 -1.16548,-1.153322 -2.11906,-2.220982 -2.11906,-2.372577 0,-0.151594 0.59072,-0.275626 1.31272,-0.275626 1.31273,0 1.31273,0 -0.95624,-2.289316 -2.3483,-2.369361 -2.44499,-2.846597 -0.62066,-3.063401 0.90226,-0.107225 0.61063,-0.458465 -4.14514,-4.992384 -5.11568,-4.877045 -5.11568,-4.877045 -5.11568,-2.931237 0,1.070195 -0.13295,2.027977 -0.29545,2.128406 -0.1625,0.100429 -0.90909,-0.445827 -1.6591,-1.213902 -0.75,-0.768076 -1.49018,-1.3965 -1.64483,-1.3965 -0.15465,0 -0.28118,0.921225 -0.28118,2.047168 0,2.99192 -1.10938,4.339208 -5.43115,6.595888 -3.59601,1.877716 -3.88063,2.277554 -2.69456,3.785396 0.67324,0.855885 0.85299,0.887207 6.08541,1.060369 5.88845,0.194872 7.66735,0.645827 10.05132,2.548046 1.07046,0.854142 1.16567,1.042311 0.66821,1.320703 -0.41903,0.2345 -1.11116,0.02081 -2.49258,-0.769552 -1.07162,-0.61312 -2.65818,-1.178506 -3.60858,-1.285955 -1.69612,-0.191756 -1.69612,-0.191756 -5.79475,3.161083 -4.09862,3.35284 -4.09862,3.35284 -10.58333,4.109543 -3.56659,0.416187 -7.06047,0.924359 -7.76417,1.129272 -0.7037,0.204914 -2.28834,1.153392 -3.52142,2.10773 -4.07231,3.151757 -7.75081,4.508078 -12.30884,4.538459 -2.64583,0.01764 -2.64583,0.01764 -0.70924,1.823163 2.46236,2.295698 4.2044,3.088838 6.80599,3.098719 2.3104,0.0088 3.81426,-0.523921 6.08713,-2.156174 1.39327,-1.000573 1.57445,-1.286186 1.57445,-2.481993 0,-1.402278 0.26475,-1.651 0.98778,-0.927975 0.59356,0.593559 0.53496,4.976619 -0.0864,6.463789 -0.28037,0.671008 -0.95505,1.654055 -1.49931,2.184548 -2.11943,2.065853 -2.21944,2.391915 -2.22195,7.244303 -0.002,4.46827 0.003,4.49792 0.8149,4.49792 0.7251,0 0.86937,-0.2623 1.27971,-2.32673 z m 24.72673,-39.81509 c -0.56651,-0.682615 0.0721,-1.60263 1.11241,-1.60263 0.53958,0 0.66199,0.206194 0.57417,0.967122 -0.12788,1.107877 -1.01662,1.442758 -1.68658,0.635508 z m -17.30258,38.90282 c 0.97841,-4.167485 1.67806,-5.491407 3.95435,-7.482647 1.85828,-1.625579 1.85828,-1.625579 -0.6051,-1.61652 -2.46339,0.0091 -2.46339,0.0091 -4.13908,1.71842 -1.6757,1.709356 -1.6757,1.709356 -1.6757,6.164547 0,4.4552 0,4.4552 0.85256,4.4552 0.78443,0 0.91331,-0.25881 1.61297,-3.239 z m 26.71823,-5.350832 c 1.24362,-4.62739 2.17773,-8.496833 2.0758,-8.598758 -0.10192,-0.101925 -0.66479,0.218137 -1.25083,0.711249 -0.58603,0.493117 -1.94211,1.311268 -3.01351,1.818122 -1.94799,0.921551 -1.94799,0.921551 -1.94799,7.813819 0,6.89226 0,6.89226 0.9377,6.78063 0.91171,-0.10853 1.00037,-0.3448 3.19883,-8.525062 z"
       id="path4747"
       inkscape:connector-curvature="0" />
  </g>
</svg>
